<svg xmlns="http://www.w3.org/2000/svg" viewBox="0 0 800 500">
  <defs>
    <linearGradient id="bg" x1="0%" y1="0%" x2="100%" y2="100%">
      <stop offset="0%" style="stop-color:#6366f1;stop-opacity:1" />
      <stop offset="100%" style="stop-color:#8b5cf6;stop-opacity:1" />
    </linearGradient>
    <linearGradient id="card" x1="0%" y1="0%" x2="0%" y2="100%">
      <stop offset="0%" style="stop-color:#ffffff;stop-opacity:1" />
      <stop offset="100%" style="stop-color:#f8fafc;stop-opacity:1" />
    </linearGradient>
  </defs>
  <rect width="800" height="500" fill="url(#bg)" rx="16"/>
  <!-- Dashboard window -->
  <rect x="40" y="30" width="720" height="440" rx="12" fill="#1e293b" opacity="0.9"/>
  <!-- Title bar -->
  <rect x="40" y="30" width="720" height="36" rx="12" fill="#334155"/>
  <circle cx="62" cy="48" r="5" fill="#ef4444"/>
  <circle cx="80" cy="48" r="5" fill="#eab308"/>
  <circle cx="98" cy="48" r="5" fill="#22c55e"/>
  <text x="400" y="52" text-anchor="middle" fill="#94a3b8" font-family="monospace" font-size="12">E-Commerce Dashboard</text>
  <!-- Sidebar -->
  <rect x="40" y="66" width="160" height="404" fill="#0f172a" rx="0"/>
  <rect x="56" y="90" width="128" height="28" rx="6" fill="#6366f1" opacity="0.2"/>
  <rect x="66" y="98" width="80" height="4" rx="2" fill="#6366f1"/>
  <rect x="56" y="130" width="128" height="28" rx="6" fill="transparent"/>
  <rect x="66" y="138" width="70" height="4" rx="2" fill="#64748b"/>
  <rect x="56" y="170" width="128" height="28" rx="6" fill="transparent"/>
  <rect x="66" y="178" width="60" height="4" rx="2" fill="#64748b"/>
  <rect x="56" y="210" width="128" height="28" rx="6" fill="transparent"/>
  <rect x="66" y="218" width="75" height="4" rx="2" fill="#64748b"/>
  <!-- Stats cards row -->
  <rect x="220" y="82" width="160" height="80" rx="10" fill="url(#card)" opacity="0.95"/>
  <rect x="236" y="100" width="60" height="6" rx="3" fill="#cbd5e1"/>
  <rect x="236" y="116" width="80" height="10" rx="3" fill="#1e293b"/>
  <rect x="236" y="138" width="50" height="5" rx="2" fill="#22c55e"/>
  <rect x="400" y="82" width="160" height="80" rx="10" fill="url(#card)" opacity="0.95"/>
  <rect x="416" y="100" width="60" height="6" rx="3" fill="#cbd5e1"/>
  <rect x="416" y="116" width="80" height="10" rx="3" fill="#1e293b"/>
  <rect x="416" y="138" width="50" height="5" rx="2" fill="#6366f1"/>
  <rect x="580" y="82" width="160" height="80" rx="10" fill="url(#card)" opacity="0.95"/>
  <rect x="596" y="100" width="60" height="6" rx="3" fill="#cbd5e1"/>
  <rect x="596" y="116" width="80" height="10" rx="3" fill="#1e293b"/>
  <rect x="596" y="138" width="50" height="5" rx="2" fill="#f59e0b"/>
  <!-- Chart area -->
  <rect x="220" y="178" width="340" height="200" rx="10" fill="url(#card)" opacity="0.95"/>
  <rect x="240" y="196" width="60" height="6" rx="3" fill="#cbd5e1"/>
  <!-- Bar chart -->
  <rect x="250" y="310" width="30" height="50" rx="4" fill="#6366f1" opacity="0.8"/>
  <rect x="290" y="280" width="30" height="80" rx="4" fill="#6366f1"/>
  <rect x="330" y="290" width="30" height="70" rx="4" fill="#6366f1" opacity="0.8"/>
  <rect x="370" y="260" width="30" height="100" rx="4" fill="#6366f1"/>
  <rect x="410" y="270" width="30" height="90" rx="4" fill="#6366f1" opacity="0.8"/>
  <rect x="450" y="240" width="30" height="120" rx="4" fill="#8b5cf6"/>
  <rect x="490" y="250" width="30" height="110" rx="4" fill="#6366f1" opacity="0.8"/>
  <!-- Products table -->
  <rect x="580" y="178" width="160" height="200" rx="10" fill="url(#card)" opacity="0.95"/>
  <rect x="596" y="196" width="60" height="6" rx="3" fill="#cbd5e1"/>
  <rect x="596" y="216" width="128" height="16" rx="4" fill="#f1f5f9"/>
  <rect x="604" y="220" width="20" height="8" rx="2" fill="#6366f1" opacity="0.3"/>
  <rect x="630" y="222" width="60" height="4" rx="2" fill="#94a3b8"/>
  <rect x="596" y="240" width="128" height="16" rx="4" fill="#f8fafc"/>
  <rect x="604" y="244" width="20" height="8" rx="2" fill="#22c55e" opacity="0.3"/>
  <rect x="630" y="246" width="50" height="4" rx="2" fill="#94a3b8"/>
  <rect x="596" y="264" width="128" height="16" rx="4" fill="#f1f5f9"/>
  <rect x="604" y="268" width="20" height="8" rx="2" fill="#f59e0b" opacity="0.3"/>
  <rect x="630" y="270" width="65" height="4" rx="2" fill="#94a3b8"/>
  <rect x="596" y="288" width="128" height="16" rx="4" fill="#f8fafc"/>
  <rect x="604" y="292" width="20" height="8" rx="2" fill="#6366f1" opacity="0.3"/>
  <rect x="630" y="294" width="45" height="4" rx="2" fill="#94a3b8"/>
  <rect x="596" y="312" width="128" height="16" rx="4" fill="#f1f5f9"/>
  <rect x="604" y="316" width="20" height="8" rx="2" fill="#ef4444" opacity="0.3"/>
  <rect x="630" y="318" width="55" height="4" rx="2" fill="#94a3b8"/>
  <!-- Bottom bar -->
  <rect x="220" y="394" width="520" height="56" rx="10" fill="url(#card)" opacity="0.95"/>
  <rect x="240" y="412" width="80" height="6" rx="3" fill="#cbd5e1"/>
  <rect x="240" y="428" width="100" height="5" rx="2" fill="#94a3b8"/>
  <circle cx="560" cy="422" r="16" fill="#6366f1" opacity="0.15"/>
  <circle cx="560" cy="422" r="8" fill="#6366f1" opacity="0.4"/>
  <circle cx="600" cy="422" r="16" fill="#22c55e" opacity="0.15"/>
  <circle cx="600" cy="422" r="8" fill="#22c55e" opacity="0.4"/>
  <circle cx="640" cy="422" r="16" fill="#f59e0b" opacity="0.15"/>
  <circle cx="640" cy="422" r="8" fill="#f59e0b" opacity="0.4"/>
  <circle cx="680" cy="422" r="16" fill="#ef4444" opacity="0.15"/>
  <circle cx="680" cy="422" r="8" fill="#ef4444" opacity="0.4"/>
</svg>
